<svg width="40" height="41" viewBox="0 0 40 41" fill="none" xmlns="http://www.w3.org/2000/svg">
<path d="M34.7333 7.68613C33.8821 6.83447 32.8714 6.15888 31.7589 5.69794C30.6465 5.237 29.4541 4.99976 28.25 4.99976C27.0459 4.99976 25.8535 5.237 24.7411 5.69794C23.6286 6.15888 22.6179 6.83447 21.7667 7.68613L20 9.4528L18.2333 7.68613C16.5138 5.96665 14.1817 5.00065 11.75 5.00065C9.31827 5.00065 6.98615 5.96665 5.26666 7.68613C3.54717 9.40562 2.58118 11.7377 2.58118 14.1695C2.58118 16.6012 3.54717 18.9333 5.26666 20.6528L7.03333 22.4195L20 35.3861L32.9667 22.4195L34.7333 20.6528C35.585 19.8015 36.2606 18.7908 36.7215 17.6784C37.1825 16.566 37.4197 15.3736 37.4197 14.1695C37.4197 12.9653 37.1825 11.773 36.7215 10.6605C36.2606 9.54811 35.585 8.53739 34.7333 7.68613V7.68613Z" stroke="#2F80ED" stroke-width="2" stroke-linecap="round" stroke-linejoin="round"/>
</svg>
