<svg width="40" height="41" viewBox="0 0 40 41" fill="none" xmlns="http://www.w3.org/2000/svg">
<path d="M31.6667 5.96997H8.33333C6.49238 5.96997 5 7.46235 5 9.3033V32.6366C5 34.4776 6.49238 35.97 8.33333 35.97H31.6667C33.5076 35.97 35 34.4776 35 32.6366V9.3033C35 7.46235 33.5076 5.96997 31.6667 5.96997Z" stroke="#2F80ED" stroke-width="2" stroke-linecap="round" stroke-linejoin="round"/>
<path d="M14.1667 17.6367C15.5474 17.6367 16.6667 16.5174 16.6667 15.1367C16.6667 13.756 15.5474 12.6367 14.1667 12.6367C12.786 12.6367 11.6667 13.756 11.6667 15.1367C11.6667 16.5174 12.786 17.6367 14.1667 17.6367Z" stroke="#2F80ED" stroke-width="2" stroke-linecap="round" stroke-linejoin="round"/>
<path d="M35 25.9701L26.6667 17.6367L8.33333 35.9701" stroke="#2F80ED" stroke-width="2" stroke-linecap="round" stroke-linejoin="round"/>
</svg>
